<svg width="800" height="400" viewBox="0 0 800 400" xmlns="http://www.w3.org/2000/svg"><mask id="satori_om-id"><rect x="0" y="0" width="800" height="400" fill="#fff"/></mask><rect x="0" y="0" width="800" height="400" fill="white"/><mask id="satori_om-id-0"><rect x="42" y="42" width="134" height="24" fill="#fff"/></mask><mask id="satori_om-id-0-0"><rect x="42" y="42" width="24" height="24" fill="#fff"/></mask><rect x="42" y="42" width="24" height="24" fill="black"/><mask id="satori_om-id-0-1"><rect x="74" y="42" width="102" height="24" fill="#fff"/></mask><path fill="black" d="M88.1 51.3L88.1 51.3L85.0 51.3Q84.9 50.7 84.6 50.2Q84.4 49.7 84.0 49.4Q83.6 49.1 83.0 48.9Q82.5 48.7 81.9 48.7L81.9 48.7Q80.7 48.7 79.9 49.3Q79.0 49.8 78.6 50.9Q78.1 51.9 78.1 53.4L78.1 53.4Q78.1 55.0 78.6 56.1Q79.1 57.1 79.9 57.7Q80.7 58.2 81.8 58.2L81.8 58.2Q82.5 58.2 83.0 58.0Q83.5 57.9 83.9 57.6Q84.3 57.2 84.6 56.8Q84.9 56.3 85.0 55.7L85.0 55.7L88.1 55.8Q88.0 56.8 87.5 57.7Q87.0 58.6 86.2 59.3Q85.4 60.1 84.3 60.5Q83.2 60.9 81.8 60.9L81.8 60.9Q79.8 60.9 78.3 60.0Q76.8 59.2 75.9 57.5Q75.0 55.8 75.0 53.4L75.0 53.4Q75.0 51.1 75.9 49.4Q76.8 47.7 78.3 46.9Q79.9 46.0 81.8 46.0L81.8 46.0Q83.0 46.0 84.1 46.3Q85.2 46.7 86.1 47.4Q86.9 48.0 87.4 49.0Q87.9 50.0 88.1 51.3ZM93.0 54.4L93.0 54.4L93.0 60.7L89.9 60.7L89.9 46.2L92.9 46.2L92.9 51.7L93.0 51.7Q93.4 50.8 94.2 50.2Q95.0 49.7 96.3 49.7L96.3 49.7Q97.4 49.7 98.2 50.2Q99.1 50.7 99.6 51.6Q100.0 52.5 100.0 53.8L100.0 53.8L100.0 60.7L97.0 60.7L97.0 54.3Q97.0 53.3 96.5 52.7Q96.0 52.2 95.1 52.2L95.1 52.2Q94.4 52.2 94.0 52.4Q93.5 52.7 93.2 53.2Q93.0 53.7 93.0 54.4ZM105.2 60.9L105.2 60.9Q104.2 60.9 103.3 60.6Q102.5 60.2 102.1 59.5Q101.6 58.8 101.6 57.7L101.6 57.7Q101.6 56.8 101.9 56.1Q102.3 55.5 102.8 55.2Q103.4 54.8 104.1 54.6Q104.9 54.4 105.7 54.3L105.7 54.3Q106.6 54.2 107.2 54.1Q107.8 54.0 108.1 53.9Q108.3 53.7 108.3 53.3L108.3 53.3L108.3 53.3Q108.3 52.6 107.9 52.2Q107.5 51.9 106.7 51.9L106.7 51.9Q105.9 51.9 105.4 52.2Q104.9 52.6 104.8 53.1L104.8 53.1L102.0 52.9Q102.2 51.9 102.8 51.2Q103.4 50.5 104.4 50.1Q105.4 49.7 106.7 49.7L106.7 49.7Q107.6 49.7 108.5 49.9Q109.3 50.1 109.9 50.5Q110.6 51.0 111.0 51.7Q111.4 52.4 111.4 53.4L111.4 53.4L111.4 60.7L108.5 60.7L108.5 59.2L108.4 59.2Q108.1 59.7 107.7 60.1Q107.3 60.5 106.6 60.7Q106.0 60.9 105.2 60.9ZM106.1 58.8L106.1 58.8Q106.7 58.8 107.3 58.6Q107.8 58.3 108.1 57.9Q108.3 57.4 108.3 56.8L108.3 56.8L108.3 55.7Q108.2 55.8 108.0 55.8Q107.7 55.9 107.4 56.0Q107.1 56.0 106.8 56.1Q106.5 56.1 106.2 56.2L106.2 56.2Q105.7 56.2 105.3 56.4Q104.9 56.6 104.7 56.9Q104.5 57.1 104.5 57.6L104.5 57.6Q104.5 58.2 104.9 58.5Q105.4 58.8 106.1 58.8ZM112.6 49.8L119.2 49.8L119.2 52.1L112.6 52.1L112.6 49.8ZM114.1 57.8L114.1 47.2L117.1 47.2L117.1 57.4Q117.1 57.8 117.3 58.0Q117.4 58.2 117.6 58.3Q117.8 58.4 118.2 58.4L118.2 58.4Q118.4 58.4 118.6 58.4Q118.8 58.4 118.9 58.3L118.9 58.3L119.4 60.6Q119.2 60.7 118.7 60.8Q118.3 60.8 117.7 60.9L117.7 60.9Q116.6 60.9 115.8 60.6Q115.0 60.2 114.6 59.5Q114.1 58.8 114.1 57.8L114.1 57.8ZM123.9 60.7L120.8 60.7L120.8 49.8L123.7 49.8L123.7 51.7L123.8 51.7Q124.2 50.8 125.0 50.2Q125.8 49.7 126.9 49.7L126.9 49.7Q128.0 49.7 128.8 50.2Q129.6 50.8 129.8 51.7L129.8 51.7L130.0 51.7Q130.3 50.8 131.2 50.2Q132.0 49.7 133.2 49.7L133.2 49.7Q134.8 49.7 135.7 50.6Q136.7 51.6 136.7 53.4L136.7 53.4L136.7 60.7L133.7 60.7L133.7 54.0Q133.7 53.1 133.2 52.6Q132.7 52.2 132.0 52.2L132.0 52.2Q131.2 52.2 130.7 52.7Q130.2 53.2 130.2 54.1L130.2 54.1L130.2 60.7L127.3 60.7L127.3 53.9Q127.3 53.1 126.8 52.6Q126.4 52.2 125.6 52.2L125.6 52.2Q125.1 52.2 124.7 52.4Q124.3 52.7 124.1 53.1Q123.9 53.6 123.9 54.2L123.9 54.2L123.9 60.7ZM141.9 60.9L141.9 60.9Q140.8 60.9 140.0 60.6Q139.2 60.2 138.7 59.5Q138.2 58.8 138.2 57.7L138.2 57.7Q138.2 56.8 138.6 56.1Q138.9 55.5 139.5 55.2Q140.1 54.8 140.8 54.6Q141.5 54.4 142.3 54.3L142.3 54.3Q143.3 54.2 143.9 54.1Q144.5 54.0 144.7 53.9Q145.0 53.7 145.0 53.3L145.0 53.3L145.0 53.3Q145.0 52.6 144.6 52.2Q144.1 51.9 143.4 51.9L143.4 51.9Q142.5 51.9 142.1 52.2Q141.6 52.6 141.4 53.1L141.4 53.1L138.6 52.9Q138.8 51.9 139.5 51.2Q140.1 50.5 141.1 50.1Q142.1 49.7 143.4 49.7L143.4 49.7Q144.3 49.7 145.1 49.9Q146.0 50.1 146.6 50.5Q147.3 51.0 147.6 51.7Q148.0 52.4 148.0 53.4L148.0 53.4L148.0 60.7L145.1 60.7L145.1 59.2L145.0 59.2Q144.8 59.7 144.3 60.1Q143.9 60.5 143.3 60.7Q142.7 60.9 141.9 60.9ZM142.7 58.8L142.7 58.8Q143.4 58.8 143.9 58.6Q144.4 58.3 144.7 57.9Q145.0 57.4 145.0 56.8L145.0 56.8L145.0 55.7Q144.9 55.8 144.6 55.8Q144.4 55.9 144.1 56.0Q143.8 56.0 143.5 56.1Q143.1 56.1 142.9 56.2L142.9 56.2Q142.4 56.2 142.0 56.4Q141.6 56.6 141.3 56.9Q141.1 57.1 141.1 57.6L141.1 57.6Q141.1 58.2 141.6 58.5Q142.0 58.8 142.7 58.8ZM149.3 49.8L155.8 49.8L155.8 52.1L149.3 52.1L149.3 49.8ZM150.8 57.8L150.8 47.2L153.8 47.2L153.8 57.4Q153.8 57.8 153.9 58.0Q154.0 58.2 154.3 58.3Q154.5 58.4 154.8 58.4L154.8 58.4Q155.0 58.4 155.2 58.4Q155.4 58.4 155.6 58.3L155.6 58.3L156.0 60.6Q155.8 60.7 155.4 60.8Q155.0 60.8 154.4 60.9L154.4 60.9Q153.3 60.9 152.5 60.6Q151.7 60.2 151.2 59.5Q150.8 58.8 150.8 57.8L150.8 57.8ZM162.3 60.9L162.3 60.9Q160.7 60.9 159.4 60.2Q158.2 59.6 157.6 58.3Q156.9 57.0 156.9 55.3L156.9 55.3Q156.9 53.6 157.6 52.4Q158.2 51.1 159.4 50.4Q160.6 49.7 162.2 49.7L162.2 49.7Q163.3 49.7 164.2 50.0Q165.2 50.4 165.9 51.0Q166.6 51.7 167.0 52.8Q167.3 53.8 167.3 55.2L167.3 55.2L167.3 56.0L158.1 56.0L158.1 54.2L164.5 54.2Q164.5 53.5 164.2 53.0Q163.9 52.5 163.4 52.2Q162.9 51.9 162.3 51.9L162.3 51.9Q161.6 51.9 161.1 52.2Q160.5 52.6 160.2 53.1Q159.9 53.6 159.9 54.3L159.9 54.3L159.9 56.0Q159.9 56.9 160.2 57.4Q160.5 58.0 161.1 58.4Q161.6 58.7 162.4 58.7L162.4 58.7Q162.9 58.7 163.3 58.5Q163.7 58.4 164.0 58.1Q164.3 57.8 164.5 57.4L164.5 57.4L167.3 57.6Q167.1 58.6 166.4 59.4Q165.8 60.1 164.7 60.5Q163.7 60.9 162.3 60.9ZM172.0 60.7L169.0 60.7L169.0 49.8L171.9 49.8L171.9 51.7L172.1 51.7Q172.3 50.7 173.1 50.2Q173.8 49.7 174.7 49.7L174.7 49.7Q174.9 49.7 175.2 49.7Q175.4 49.7 175.6 49.8L175.6 49.8L175.6 52.4Q175.4 52.4 175.0 52.3Q174.7 52.3 174.3 52.3L174.3 52.3Q173.7 52.3 173.2 52.6Q172.6 52.9 172.3 53.4Q172.0 53.9 172.0 54.5L172.0 54.5L172.0 60.7Z "/><mask id="satori_om-id-1"><rect x="233" y="152" width="335" height="96" fill="#fff"/></mask><rect x="233" y="152" width="335" height="96" fill="black"/><path fill="white" d="M307.2 192.7L301.3 192.7Q301.1 191.0 299.8 190.1Q298.6 189.1 296.3 189.1L296.3 189.1Q294.8 189.1 293.8 189.5Q292.8 190.0 292.2 190.7Q291.7 191.4 291.7 192.4L291.7 192.4Q291.6 193.2 292.0 193.7Q292.4 194.3 293 194.7Q293.6 195.2 294.5 195.5Q295.3 195.8 296.3 196.0L296.3 196.0L298.9 196.6Q300.8 197.0 302.4 197.7Q304.0 198.5 305.1 199.5Q306.3 200.5 306.9 201.9Q307.6 203.3 307.6 205.2L307.6 205.2Q307.6 207.8 306.2 209.8Q304.9 211.7 302.4 212.8Q299.9 213.9 296.3 213.9L296.3 213.9Q292.8 213.9 290.2 212.8Q287.6 211.7 286.1 209.6Q284.7 207.5 284.6 204.3L284.6 204.3L290.5 204.3Q290.6 205.8 291.4 206.8Q292.1 207.7 293.4 208.2Q294.6 208.7 296.2 208.7L296.2 208.7Q297.8 208.7 299.0 208.3Q300.1 207.8 300.8 207.0Q301.4 206.2 301.4 205.2L301.4 205.2Q301.4 204.2 300.8 203.5Q300.2 202.8 299.1 202.4Q298.0 201.9 296.5 201.5L296.5 201.5L293.3 200.7Q289.6 199.8 287.5 197.9Q285.3 196.0 285.4 192.8L285.4 192.8Q285.3 190.2 286.8 188.2Q288.2 186.2 290.7 185.1Q293.2 184.0 296.4 184.0L296.4 184.0Q299.6 184.0 302.0 185.1Q304.5 186.2 305.8 188.2Q307.2 190.2 307.2 192.7L307.2 192.7ZM309.8 191.7L322.9 191.7L322.9 196.2L309.8 196.2L309.8 191.7ZM312.7 207.6L312.7 186.4L318.8 186.4L318.8 206.8Q318.8 207.6 319.0 208.1Q319.3 208.5 319.8 208.7Q320.2 208.9 320.8 208.9L320.8 208.9Q321.3 208.9 321.7 208.8Q322.1 208.7 322.3 208.7L322.3 208.7L323.3 213.2Q322.8 213.3 322.0 213.5Q321.2 213.7 320.0 213.8L320.0 213.8Q317.8 213.9 316.2 213.2Q314.5 212.5 313.6 211.1Q312.7 209.7 312.7 207.6L312.7 207.6ZM336.2 213.9L336.2 213.9Q332.9 213.9 330.4 212.5Q328.0 211.2 326.7 208.6Q325.4 206.1 325.4 202.7L325.4 202.7Q325.4 199.3 326.7 196.8Q328.0 194.2 330.4 192.8Q332.8 191.4 336.0 191.4L336.0 191.4Q338.1 191.4 340.0 192.1Q341.9 192.7 343.3 194.1Q344.7 195.5 345.5 197.6Q346.2 199.7 346.2 202.5L346.2 202.5L346.2 204.1L327.8 204.1L327.8 200.4L340.5 200.4Q340.5 199.1 340.0 198.0Q339.4 197.0 338.4 196.5Q337.4 195.9 336.1 195.9L336.1 195.9Q334.7 195.9 333.6 196.5Q332.6 197.2 332.0 198.2Q331.4 199.3 331.4 200.6L331.4 200.6L331.4 204.1Q331.4 205.7 332.0 206.9Q332.6 208.1 333.7 208.7Q334.8 209.4 336.3 209.4L336.3 209.4Q337.3 209.4 338.2 209.1Q339.0 208.8 339.6 208.2Q340.2 207.7 340.5 206.9L340.5 206.9L346.1 207.2Q345.7 209.2 344.4 210.7Q343.1 212.2 341.0 213.1Q338.9 213.9 336.2 213.9ZM355.9 221.7L349.9 221.7L349.9 191.7L355.8 191.7L355.8 195.3L356.1 195.3Q356.5 194.4 357.3 193.5Q358.0 192.6 359.2 192.0Q360.5 191.4 362.3 191.4L362.3 191.4Q364.7 191.4 366.7 192.6Q368.7 193.9 369.9 196.4Q371.1 198.8 371.1 202.6L371.1 202.6Q371.1 206.2 370.0 208.8Q368.8 211.3 366.8 212.5Q364.8 213.8 362.3 213.8L362.3 213.8Q360.5 213.8 359.3 213.2Q358.1 212.7 357.3 211.8Q356.5 210.9 356.1 210.0L356.1 210.0L355.9 210.0L355.9 221.7ZM355.8 202.6L355.8 202.6Q355.8 204.5 356.3 206.0Q356.9 207.4 357.9 208.2Q358.9 209.0 360.4 209.0L360.4 209.0Q361.9 209.0 362.9 208.2Q363.9 207.4 364.4 205.9Q365.0 204.5 365.0 202.6L365.0 202.6Q365.0 200.7 364.4 199.2Q363.9 197.8 362.9 197.0Q361.9 196.2 360.4 196.2L360.4 196.2Q358.9 196.2 357.9 197.0Q356.9 197.7 356.3 199.2Q355.8 200.6 355.8 202.6Z M398.0 204.2L398.0 204.2L398.0 191.7L404.1 191.7L404.1 213.5L398.3 213.5L398.3 209.5L398.0 209.5Q397.3 211.4 395.6 212.6Q393.9 213.8 391.4 213.8L391.4 213.8Q389.2 213.8 387.6 212.8Q385.9 211.8 385.0 209.9Q384.0 208.1 384.0 205.5L384.0 205.5L384.0 191.7L390.1 191.7L390.1 204.5Q390.1 206.4 391.1 207.5Q392.1 208.6 393.9 208.6L393.9 208.6Q395.0 208.6 395.9 208.1Q396.9 207.6 397.4 206.6Q398.0 205.6 398.0 204.2ZM414.6 221.7L408.6 221.7L408.6 191.7L414.5 191.7L414.5 195.3L414.8 195.3Q415.2 194.4 416.0 193.5Q416.7 192.6 418.0 192.0Q419.2 191.4 421.0 191.4L421.0 191.4Q423.4 191.4 425.4 192.6Q427.4 193.9 428.7 196.4Q429.9 198.8 429.9 202.6L429.9 202.6Q429.9 206.2 428.7 208.8Q427.5 211.3 425.5 212.5Q423.5 213.8 421.0 213.8L421.0 213.8Q419.2 213.8 418.0 213.2Q416.8 212.7 416.0 211.8Q415.2 210.9 414.8 210.0L414.8 210.0L414.6 210.0L414.6 221.7ZM414.5 202.6L414.5 202.6Q414.5 204.5 415.0 206.0Q415.6 207.4 416.6 208.2Q417.6 209.0 419.1 209.0L419.1 209.0Q420.6 209.0 421.6 208.2Q422.6 207.4 423.1 205.9Q423.7 204.5 423.7 202.6L423.7 202.6Q423.7 200.7 423.2 199.2Q422.6 197.8 421.6 197.0Q420.6 196.2 419.1 196.2L419.1 196.2Q417.6 196.2 416.6 197.0Q415.6 197.7 415.0 199.2Q414.5 200.6 414.5 202.6Z M448.6 213.5L442.6 213.5L442.6 184.4L448.7 184.4L448.7 195.3L448.9 195.3Q449.3 194.4 450.0 193.5Q450.8 192.6 452.0 192.0Q453.2 191.4 455.1 191.4L455.1 191.4Q457.5 191.4 459.5 192.6Q461.5 193.9 462.7 196.4Q463.9 198.8 463.9 202.6L463.9 202.6Q463.9 206.2 462.7 208.8Q461.6 211.3 459.6 212.5Q457.5 213.8 455.1 213.8L455.1 213.8Q453.3 213.8 452.1 213.2Q450.8 212.7 450.1 211.8Q449.3 210.9 448.9 210.0L448.9 210.0L448.6 210.0L448.6 213.5ZM448.6 202.6L448.6 202.6Q448.6 204.5 449.1 206.0Q449.6 207.4 450.7 208.2Q451.7 209.0 453.1 209.0L453.1 209.0Q454.6 209.0 455.6 208.2Q456.7 207.4 457.2 205.9Q457.7 204.5 457.7 202.6L457.7 202.6Q457.7 200.7 457.2 199.2Q456.7 197.8 455.7 197.0Q454.6 196.2 453.1 196.2L453.1 196.2Q451.7 196.2 450.6 197.0Q449.6 197.7 449.1 199.2Q448.6 200.6 448.6 202.6ZM473.7 213.5L467.6 213.5L467.6 191.7L473.5 191.7L473.5 195.5L473.7 195.5Q474.3 193.4 475.7 192.4Q477.1 191.3 478.9 191.3L478.9 191.3Q479.4 191.3 479.9 191.4Q480.4 191.5 480.8 191.6L480.8 191.6L480.8 196.9Q480.4 196.8 479.7 196.7Q478.9 196.6 478.3 196.6L478.3 196.6Q477.0 196.6 475.9 197.2Q474.9 197.7 474.3 198.8Q473.7 199.8 473.7 201.1L473.7 201.1L473.7 213.5ZM492.5 213.9L492.5 213.9Q489.2 213.9 486.8 212.5Q484.3 211.1 483.0 208.5Q481.7 206.0 481.7 202.7L481.7 202.7Q481.7 199.3 483.0 196.7Q484.3 194.2 486.8 192.8Q489.2 191.4 492.5 191.4L492.5 191.4Q495.8 191.4 498.2 192.8Q500.6 194.2 501.9 196.7Q503.2 199.3 503.2 202.7L503.2 202.7Q503.2 206.0 501.9 208.5Q500.6 211.1 498.2 212.5Q495.8 213.9 492.5 213.9ZM492.5 209.2L492.5 209.2Q494.0 209.2 495.0 208.4Q496.0 207.5 496.5 206.0Q497.1 204.5 497.1 202.6L497.1 202.6Q497.1 200.7 496.5 199.2Q496.0 197.7 495.0 196.9Q494.0 196.0 492.5 196.0L492.5 196.0Q491.0 196.0 489.9 196.9Q488.9 197.7 488.4 199.2Q487.9 200.7 487.9 202.6L487.9 202.6Q487.9 204.5 488.4 206.0Q488.9 207.5 489.9 208.4Q491.0 209.2 492.5 209.2ZM510.4 213.8L510.4 213.8Q509.0 213.8 508.0 212.8Q507.0 211.8 507.0 210.4L507.0 210.4Q507.0 209.0 508.0 208.0Q509.0 207.1 510.4 207.1L510.4 207.1Q511.7 207.1 512.8 208.0Q513.8 209.0 513.8 210.4L513.8 210.4Q513.8 211.4 513.3 212.1Q512.8 212.9 512.1 213.4Q511.3 213.8 510.4 213.8Z "/></svg>